<svg viewBox="0 0 24 24" fill="none" xmlns="http://www.w3.org/2000/svg">
  <path fill-rule="evenodd" clip-rule="evenodd"
    d="M21 1C21.5523 1 22 1.44772 22 2V8C22 8.55228 21.5523 9 21 9H15C14.4477 9 14 8.55228 14 8C14 7.44772 14.4477 7 15 7H20V2C20 1.44772 20.4477 1 21 1Z"
  />
  <path fill-rule="evenodd" clip-rule="evenodd"
    d="M12.499 4.06522C10.7088 3.96461 8.93669 4.4683 7.46706 5.49547C5.99742 6.52264 4.91546 8.01374 4.39478 9.72949C3.87411 11.4452 3.94491 13.2862 4.59583 14.9569C5.24675 16.6276 6.44004 18.0311 7.98423 18.9424C9.52842 19.8537 11.334 20.2198 13.1111 19.9819C14.8883 19.7441 16.5341 18.9162 17.7843 17.631C19.0346 16.3458 19.8169 14.6778 20.0056 12.8948C20.0637 12.3455 20.5561 11.9474 21.1053 12.0056C21.6545 12.0637 22.0526 12.5561 21.9945 13.1053C21.7586 15.3341 20.7807 17.4191 19.2179 19.0256C17.6551 20.6321 15.5979 21.667 13.3764 21.9643C11.1549 22.2615 8.89801 21.8039 6.96778 20.6648C5.03754 19.5258 3.54592 17.7713 2.73228 15.6829C1.91863 13.5946 1.83012 11.2934 2.48097 9.14871C3.13181 7.00402 4.48427 5.14015 6.32131 3.85619C8.15835 2.57222 10.3735 1.94261 12.6112 2.06838C14.8489 2.19415 16.9796 3.06801 18.6612 4.54974L18.669 4.55669L18.669 4.55673L21.669 7.25673C22.0795 7.62619 22.1128 8.25848 21.7433 8.66899C21.3739 9.0795 20.7416 9.11278 20.3311 8.74332L17.3351 6.04696C15.9904 4.86361 14.2875 4.16575 12.499 4.06522Z"
  />
</svg>