<svg viewBox="0 0 24 24" fill="none" xmlns="http://www.w3.org/2000/svg">
  <path fill-rule="evenodd" clip-rule="evenodd"
    d="M19.499 1.00098C19.7911 1.00098 20.0801 1.05945 20.3496 1.17188C20.6182 1.28395 20.8624 1.44775 21.0674 1.6543L22.3418 2.92871C22.5498 3.1326 22.7158 3.37613 22.8291 3.64453C22.9434 3.91525 23.002 4.20616 23.002 4.5C23.002 4.79384 22.9434 5.08475 22.8291 5.35547C22.7158 5.62386 22.5498 5.86741 22.3418 6.07129L6.07031 22.3428C5.86643 22.5508 5.62288 22.7168 5.35449 22.8301C5.08377 22.9443 4.79287 23.0029 4.49902 23.0029C4.20518 23.0029 3.91427 22.9443 3.64355 22.8301C3.37515 22.7168 3.13162 22.5508 2.92773 22.3428L1.65332 21.0684C1.44678 20.8633 1.28297 20.6192 1.1709 20.3506C1.05847 20.081 1 19.7921 1 19.5C1 19.2079 1.05847 18.919 1.1709 18.6494C1.28297 18.3808 1.44678 18.1367 1.65332 17.9316L17.9307 1.6543C18.1357 1.44775 18.3798 1.28395 18.6484 1.17188C18.918 1.05945 19.207 1.00098 19.499 1.00098ZM3.0625 19.3506C3.04283 19.3701 3.02729 19.3934 3.0166 19.4189C3.00591 19.4446 3 19.4722 3 19.5C3 19.5278 3.00591 19.5554 3.0166 19.5811C3.02729 19.6066 3.04283 19.6299 3.0625 19.6494L4.35547 20.9424C4.37403 20.9615 4.3964 20.9769 4.4209 20.9873C4.44552 20.9977 4.4723 21.0029 4.49902 21.0029C4.52575 21.0029 4.55253 20.9977 4.57715 20.9873C4.60164 20.9769 4.62401 20.9615 4.64258 20.9424L4.65137 20.9326L15.584 9.99902L13.999 8.41406L3.0625 19.3506Z"
  />
  <path
    d="M18.999 13C19.5513 13 19.999 13.4477 19.999 14V15H20.999C21.5513 15 21.999 15.4477 21.999 16C21.999 16.5523 21.5513 17 20.999 17H19.999V18C19.999 18.5523 19.5513 19 18.999 19C18.4467 19 17.999 18.5523 17.999 18V17H16.999C16.4467 17 15.999 16.5523 15.999 16C15.999 15.4477 16.4467 15 16.999 15H17.999V14C17.999 13.4477 18.4467 13 18.999 13Z"
  />
  <path
    d="M4.99902 5C5.55131 5 5.99902 5.44772 5.99902 6V7H6.99902C7.55131 7 7.99902 7.44772 7.99902 8C7.99902 8.55228 7.55131 9 6.99902 9H5.99902V10C5.99902 10.5523 5.55131 11 4.99902 11C4.44674 11 3.99902 10.5523 3.99902 10V9H2.99902C2.44674 9 1.99902 8.55228 1.99902 8C1.99902 7.44772 2.44674 7 2.99902 7H3.99902V6C3.99902 5.44772 4.44674 5 4.99902 5Z"
  />
  <path
    d="M9.99902 1C10.5513 1 10.999 1.44772 10.999 2L11.1016 2.00488C11.6057 2.05621 11.999 2.48232 11.999 3C11.999 3.51768 11.6057 3.94379 11.1016 3.99512L10.999 4L10.9941 4.10254C10.9428 4.60667 10.5167 5 9.99902 5C9.48135 5 9.05524 4.60667 9.00391 4.10254L8.99902 4L8.89648 3.99512C8.39235 3.94379 7.99902 3.51768 7.99902 3C7.99902 2.48232 8.39235 2.05621 8.89648 2.00488L8.99902 2C8.99902 1.44772 9.44674 1 9.99902 1Z"
  />
</svg>